<mxfile host="Electron" modified="2024-08-13T18:25:40.812Z" agent="Mozilla/5.0 (Windows NT 10.0; Win64; x64) AppleWebKit/537.36 (KHTML, like Gecko) draw.io/24.6.4 Chrome/124.0.6367.207 Electron/30.0.6 Safari/537.36" etag="nbmZOems_cF-AZCnHNsS" version="24.6.4" type="device">
  <diagram name="第 1 页" id="N6iN6V0hHzY832mEbOhE">
    <mxGraphModel dx="5980" dy="2511" grid="1" gridSize="10" guides="1" tooltips="1" connect="0" arrows="1" fold="1" page="0" pageScale="1" pageWidth="827" pageHeight="1169" math="0" shadow="0">
      <root>
        <mxCell id="0" />
        <mxCell id="1" parent="0" />
        <mxCell id="aSTPwUxg6GZyq2fV6xZW-208" value="" style="rounded=1;whiteSpace=wrap;html=1;arcSize=4;fontSize=34;fontFamily=Helvetica;" parent="1" vertex="1">
          <mxGeometry x="-950" y="30" width="2410" height="1720" as="geometry" />
        </mxCell>
        <mxCell id="pp8-QFKgKfyrIBCOwYfq-483" value="" style="rounded=1;whiteSpace=wrap;html=1;fillColor=#f5f5f5;strokeColor=#666666;fontSize=34;fontColor=#333333;fontFamily=Helvetica;" parent="1" vertex="1">
          <mxGeometry x="-910" y="200" width="1950" height="1450" as="geometry" />
        </mxCell>
        <mxCell id="pp8-QFKgKfyrIBCOwYfq-485" value="&lt;font style=&quot;font-size: 100px;&quot;&gt;&lt;b style=&quot;font-size: 100px;&quot;&gt;BackEnd&lt;/b&gt;&lt;/font&gt;" style="text;html=1;align=center;verticalAlign=middle;resizable=0;points=[];autosize=1;strokeColor=none;fillColor=none;fontSize=100;fontFamily=Helvetica;" parent="1" vertex="1">
          <mxGeometry x="50" y="70" width="450" height="130" as="geometry" />
        </mxCell>
        <mxCell id="q9oViSbYk0b3c3KkVcn8-242" value="" style="group;fontSize=34;fontFamily=Helvetica;" parent="1" vertex="1" connectable="0">
          <mxGeometry x="1110" y="1190" width="310" height="420" as="geometry" />
        </mxCell>
        <mxCell id="S6ko7MBMmiBV2JEF59HL-68" value="&lt;b style=&quot;border-color: var(--border-color); font-size: 34px;&quot;&gt;&lt;font color=&quot;#000000&quot; style=&quot;font-size: 34px;&quot;&gt;ROB&lt;/font&gt;&lt;/b&gt;&lt;div style=&quot;font-size: 34px;&quot;&gt;&lt;b style=&quot;border-color: var(--border-color); font-size: 34px;&quot;&gt;&lt;font color=&quot;#000000&quot; style=&quot;font-size: 34px;&quot;&gt;&amp;nbsp;Commit&lt;/font&gt;&lt;/b&gt;&lt;/div&gt;" style="rounded=1;whiteSpace=wrap;html=1;fillColor=#ffe6cc;strokeColor=#000000;fontSize=34;fontFamily=Helvetica;" parent="q9oViSbYk0b3c3KkVcn8-242" vertex="1">
          <mxGeometry width="310.00000000000006" height="420" as="geometry" />
        </mxCell>
        <mxCell id="q9oViSbYk0b3c3KkVcn8-243" value="" style="group;fontSize=34;fontFamily=Helvetica;" parent="1" vertex="1" connectable="0">
          <mxGeometry x="1105" y="190" width="320" height="900" as="geometry" />
        </mxCell>
        <mxCell id="q9oViSbYk0b3c3KkVcn8-222" value="&lt;font style=&quot;font-size: 34px;&quot;&gt;&lt;b style=&quot;font-size: 34px;&quot;&gt;sRAT&lt;/b&gt;&lt;/font&gt;" style="rounded=1;whiteSpace=wrap;html=1;fillColor=#ffe6cc;strokeColor=#000000;fontSize=34;fontFamily=Helvetica;" parent="q9oViSbYk0b3c3KkVcn8-243" vertex="1">
          <mxGeometry x="-5" width="320" height="900" as="geometry" />
        </mxCell>
        <mxCell id="pp8-QFKgKfyrIBCOwYfq-302" value="&lt;font color=&quot;#000000&quot; style=&quot;font-size: 34px;&quot;&gt;&lt;b style=&quot;font-size: 34px;&quot;&gt;aRAT&lt;/b&gt;&lt;/font&gt;" style="rounded=1;whiteSpace=wrap;html=1;fillColor=#ffcc99;strokeColor=#000000;fontSize=34;fontFamily=Helvetica;" parent="q9oViSbYk0b3c3KkVcn8-243" vertex="1">
          <mxGeometry x="36.92307692307692" y="61.36363636363636" width="233.8461538461539" height="208.63636363636365" as="geometry" />
        </mxCell>
        <mxCell id="q9oViSbYk0b3c3KkVcn8-223" value="&lt;font style=&quot;font-size: 34px;&quot;&gt;&lt;b style=&quot;font-size: 34px;&quot;&gt;freelist&lt;/b&gt;&lt;/font&gt;" style="rounded=1;whiteSpace=wrap;html=1;fillColor=#ffcc99;strokeColor=#36393d;fontSize=34;fontFamily=Helvetica;" parent="q9oViSbYk0b3c3KkVcn8-243" vertex="1">
          <mxGeometry x="30.76923076923078" y="605.4545454545454" width="258.46153846153845" height="237.27272727272722" as="geometry" />
        </mxCell>
        <mxCell id="auRPPHbOvDZTyeZEAKgO-215" value="" style="edgeStyle=orthogonalEdgeStyle;rounded=0;orthogonalLoop=1;jettySize=auto;html=1;entryX=0.516;entryY=0.998;entryDx=0;entryDy=0;entryPerimeter=0;fontSize=34;fontFamily=Helvetica;" parent="1" source="S6ko7MBMmiBV2JEF59HL-68" target="q9oViSbYk0b3c3KkVcn8-222" edge="1">
          <mxGeometry relative="1" as="geometry" />
        </mxCell>
        <mxCell id="auRPPHbOvDZTyeZEAKgO-232" style="edgeStyle=orthogonalEdgeStyle;rounded=0;orthogonalLoop=1;jettySize=auto;html=1;fontSize=34;fontFamily=Helvetica;" parent="1" source="auRPPHbOvDZTyeZEAKgO-228" target="S6ko7MBMmiBV2JEF59HL-68" edge="1">
          <mxGeometry relative="1" as="geometry">
            <Array as="points">
              <mxPoint x="970" y="1161" />
              <mxPoint x="970" y="1400" />
            </Array>
          </mxGeometry>
        </mxCell>
        <mxCell id="auRPPHbOvDZTyeZEAKgO-233" style="edgeStyle=orthogonalEdgeStyle;rounded=0;orthogonalLoop=1;jettySize=auto;html=1;fontSize=34;fontFamily=Helvetica;" parent="1" source="auRPPHbOvDZTyeZEAKgO-230" target="S6ko7MBMmiBV2JEF59HL-68" edge="1">
          <mxGeometry relative="1" as="geometry" />
        </mxCell>
        <mxCell id="auRPPHbOvDZTyeZEAKgO-251" style="edgeStyle=orthogonalEdgeStyle;rounded=0;orthogonalLoop=1;jettySize=auto;html=1;fontSize=34;fontFamily=Helvetica;" parent="1" source="auRPPHbOvDZTyeZEAKgO-246" target="S6ko7MBMmiBV2JEF59HL-68" edge="1">
          <mxGeometry relative="1" as="geometry">
            <Array as="points">
              <mxPoint x="970" y="919" />
              <mxPoint x="970" y="1400" />
            </Array>
          </mxGeometry>
        </mxCell>
        <mxCell id="auRPPHbOvDZTyeZEAKgO-250" style="edgeStyle=orthogonalEdgeStyle;rounded=0;orthogonalLoop=1;jettySize=auto;html=1;fontSize=34;fontFamily=Helvetica;" parent="1" source="auRPPHbOvDZTyeZEAKgO-248" target="S6ko7MBMmiBV2JEF59HL-68" edge="1">
          <mxGeometry relative="1" as="geometry">
            <Array as="points">
              <mxPoint x="970" y="681" />
              <mxPoint x="970" y="1400" />
            </Array>
          </mxGeometry>
        </mxCell>
        <mxCell id="Y0o45EJZCBMr-YiilYOE-206" value="" style="group;fontSize=32;fontFamily=Helvetica;" parent="1" vertex="1" connectable="0">
          <mxGeometry x="-860" y="270" width="1693.5" height="1280.75" as="geometry" />
        </mxCell>
        <mxCell id="pp8-QFKgKfyrIBCOwYfq-109" style="edgeStyle=orthogonalEdgeStyle;rounded=0;orthogonalLoop=1;jettySize=auto;html=1;exitX=1;exitY=0.5;exitDx=0;exitDy=0;entryX=0;entryY=0.5;entryDx=0;entryDy=0;strokeColor=#000000;fontSize=34;fontFamily=Helvetica;" parent="Y0o45EJZCBMr-YiilYOE-206" source="pp8-QFKgKfyrIBCOwYfq-94" target="pp8-QFKgKfyrIBCOwYfq-102" edge="1">
          <mxGeometry relative="1" as="geometry">
            <Array as="points">
              <mxPoint x="165" y="506.25308811419154" />
              <mxPoint x="165" y="393.75240186659346" />
            </Array>
          </mxGeometry>
        </mxCell>
        <mxCell id="pp8-QFKgKfyrIBCOwYfq-110" style="edgeStyle=orthogonalEdgeStyle;rounded=0;orthogonalLoop=1;jettySize=auto;html=1;exitX=1;exitY=0.5;exitDx=0;exitDy=0;entryX=0;entryY=0.5;entryDx=0;entryDy=0;strokeColor=#000000;fontSize=34;fontFamily=Helvetica;" parent="Y0o45EJZCBMr-YiilYOE-206" source="pp8-QFKgKfyrIBCOwYfq-94" target="pp8-QFKgKfyrIBCOwYfq-103" edge="1">
          <mxGeometry relative="1" as="geometry">
            <Array as="points">
              <mxPoint x="165" y="506.25308811419154" />
              <mxPoint x="165" y="731.2544606093878" />
            </Array>
          </mxGeometry>
        </mxCell>
        <mxCell id="pp8-QFKgKfyrIBCOwYfq-111" style="edgeStyle=orthogonalEdgeStyle;rounded=0;orthogonalLoop=1;jettySize=auto;html=1;exitX=1;exitY=0.5;exitDx=0;exitDy=0;entryX=0;entryY=0.5;entryDx=0;entryDy=0;strokeColor=#000000;fontSize=34;fontFamily=Helvetica;" parent="Y0o45EJZCBMr-YiilYOE-206" source="pp8-QFKgKfyrIBCOwYfq-94" target="pp8-QFKgKfyrIBCOwYfq-104" edge="1">
          <mxGeometry relative="1" as="geometry">
            <Array as="points">
              <mxPoint x="165" y="507.6593466922866" />
              <mxPoint x="165" y="1067.3502607740872" />
            </Array>
          </mxGeometry>
        </mxCell>
        <mxCell id="pp8-QFKgKfyrIBCOwYfq-168" style="edgeStyle=orthogonalEdgeStyle;rounded=0;orthogonalLoop=1;jettySize=auto;html=1;exitX=1;exitY=0.5;exitDx=0;exitDy=0;entryX=0;entryY=0.5;entryDx=0;entryDy=0;strokeColor=#000000;fontSize=34;fontFamily=Helvetica;" parent="Y0o45EJZCBMr-YiilYOE-206" source="pp8-QFKgKfyrIBCOwYfq-94" target="pp8-QFKgKfyrIBCOwYfq-101" edge="1">
          <mxGeometry relative="1" as="geometry">
            <Array as="points">
              <mxPoint x="165" y="506.25308811419154" />
              <mxPoint x="165" y="56.25034312379907" />
            </Array>
          </mxGeometry>
        </mxCell>
        <mxCell id="pp8-QFKgKfyrIBCOwYfq-129" style="edgeStyle=orthogonalEdgeStyle;rounded=0;orthogonalLoop=1;jettySize=auto;html=1;exitX=1;exitY=0.5;exitDx=0;exitDy=0;entryX=0;entryY=0.5;entryDx=0;entryDy=0;strokeColor=#000000;fontSize=34;fontFamily=Helvetica;" parent="Y0o45EJZCBMr-YiilYOE-206" source="pp8-QFKgKfyrIBCOwYfq-101" target="pp8-QFKgKfyrIBCOwYfq-120" edge="1">
          <mxGeometry relative="1" as="geometry" />
        </mxCell>
        <mxCell id="pp8-QFKgKfyrIBCOwYfq-101" value="&lt;b style=&quot;border-color: var(--border-color); font-size: 34px;&quot;&gt;Arith Queue&lt;/b&gt;" style="rounded=0;whiteSpace=wrap;html=1;fillColor=#f8cecc;strokeColor=#000000;fontSize=34;fontFamily=Helvetica;" parent="Y0o45EJZCBMr-YiilYOE-206" vertex="1">
          <mxGeometry x="215" y="5.109999999999999" width="241" height="104.38" as="geometry" />
        </mxCell>
        <mxCell id="pp8-QFKgKfyrIBCOwYfq-131" style="edgeStyle=orthogonalEdgeStyle;rounded=0;orthogonalLoop=1;jettySize=auto;html=1;exitX=1;exitY=0.5;exitDx=0;exitDy=0;entryX=0;entryY=0.5;entryDx=0;entryDy=0;strokeColor=#000000;fontSize=34;fontFamily=Helvetica;" parent="Y0o45EJZCBMr-YiilYOE-206" source="pp8-QFKgKfyrIBCOwYfq-102" target="pp8-QFKgKfyrIBCOwYfq-121" edge="1">
          <mxGeometry relative="1" as="geometry" />
        </mxCell>
        <mxCell id="pp8-QFKgKfyrIBCOwYfq-102" value="&lt;b style=&quot;border-color: var(--border-color); font-size: 34px;&quot;&gt;Arith Queue&lt;/b&gt;" style="rounded=0;whiteSpace=wrap;html=1;fillColor=#f8cecc;strokeColor=#000000;fontSize=34;fontFamily=Helvetica;" parent="Y0o45EJZCBMr-YiilYOE-206" vertex="1">
          <mxGeometry x="215" y="336.01" width="241" height="111.88" as="geometry" />
        </mxCell>
        <mxCell id="q9oViSbYk0b3c3KkVcn8-235" value="" style="edgeStyle=orthogonalEdgeStyle;rounded=0;orthogonalLoop=1;jettySize=auto;html=1;fontSize=34;fontFamily=Helvetica;" parent="Y0o45EJZCBMr-YiilYOE-206" source="pp8-QFKgKfyrIBCOwYfq-103" target="q9oViSbYk0b3c3KkVcn8-234" edge="1">
          <mxGeometry relative="1" as="geometry" />
        </mxCell>
        <mxCell id="pp8-QFKgKfyrIBCOwYfq-103" value="&lt;b style=&quot;font-size: 34px;&quot;&gt;MulDiv &amp;amp; Priv&amp;nbsp;&lt;/b&gt;&lt;b style=&quot;background-color: initial; font-size: 34px;&quot;&gt;Queue&lt;/b&gt;" style="rounded=0;whiteSpace=wrap;html=1;fillColor=#f8cecc;strokeColor=#000000;fontSize=34;fontFamily=Helvetica;" parent="Y0o45EJZCBMr-YiilYOE-206" vertex="1">
          <mxGeometry x="215" y="672.27" width="241" height="119.38" as="geometry" />
        </mxCell>
        <mxCell id="q9oViSbYk0b3c3KkVcn8-226" value="" style="edgeStyle=orthogonalEdgeStyle;rounded=0;orthogonalLoop=1;jettySize=auto;html=1;fontSize=34;fontFamily=Helvetica;" parent="Y0o45EJZCBMr-YiilYOE-206" source="pp8-QFKgKfyrIBCOwYfq-104" target="q9oViSbYk0b3c3KkVcn8-224" edge="1">
          <mxGeometry relative="1" as="geometry" />
        </mxCell>
        <mxCell id="pp8-QFKgKfyrIBCOwYfq-104" value="&lt;b style=&quot;font-size: 34px;&quot;&gt;&lt;font style=&quot;font-size: 34px;&quot; color=&quot;#000000&quot;&gt;Memory Que&lt;/font&gt;&lt;/b&gt;&lt;b style=&quot;background-color: initial; font-size: 34px;&quot;&gt;&lt;font style=&quot;font-size: 34px;&quot; color=&quot;#000000&quot;&gt;ue&lt;/font&gt;&lt;/b&gt;" style="rounded=0;whiteSpace=wrap;html=1;fillColor=#f8cecc;strokeColor=#000000;fontSize=34;fontFamily=Helvetica;" parent="Y0o45EJZCBMr-YiilYOE-206" vertex="1">
          <mxGeometry x="215" y="1011" width="241" height="116.88" as="geometry" />
        </mxCell>
        <mxCell id="q9oViSbYk0b3c3KkVcn8-231" value="" style="edgeStyle=orthogonalEdgeStyle;rounded=0;orthogonalLoop=1;jettySize=auto;html=1;fontSize=34;fontFamily=Helvetica;" parent="Y0o45EJZCBMr-YiilYOE-206" source="pp8-QFKgKfyrIBCOwYfq-120" target="q9oViSbYk0b3c3KkVcn8-230" edge="1">
          <mxGeometry relative="1" as="geometry" />
        </mxCell>
        <mxCell id="pp8-QFKgKfyrIBCOwYfq-120" value="Unordered&lt;div style=&quot;font-size: 34px;&quot;&gt;Issue&lt;/div&gt;" style="rounded=1;whiteSpace=wrap;html=1;fontStyle=1;fillColor=#ffe6cc;strokeColor=#000000;fontSize=34;fontFamily=Helvetica;" parent="Y0o45EJZCBMr-YiilYOE-206" vertex="1">
          <mxGeometry x="505" y="0.7031292890474883" width="120" height="111.09442766950316" as="geometry" />
        </mxCell>
        <mxCell id="q9oViSbYk0b3c3KkVcn8-229" value="" style="edgeStyle=orthogonalEdgeStyle;rounded=0;orthogonalLoop=1;jettySize=auto;html=1;fontSize=34;fontFamily=Helvetica;" parent="Y0o45EJZCBMr-YiilYOE-206" source="pp8-QFKgKfyrIBCOwYfq-121" target="q9oViSbYk0b3c3KkVcn8-228" edge="1">
          <mxGeometry relative="1" as="geometry" />
        </mxCell>
        <mxCell id="pp8-QFKgKfyrIBCOwYfq-121" value="Unordered&lt;div style=&quot;font-size: 34px;&quot;&gt;Issue&lt;/div&gt;" style="rounded=1;whiteSpace=wrap;html=1;fontStyle=1;fillColor=#ffe6cc;strokeColor=#000000;fontSize=34;fontFamily=Helvetica;" parent="Y0o45EJZCBMr-YiilYOE-206" vertex="1">
          <mxGeometry x="505" y="338.2051880318419" width="120" height="111.09442766950316" as="geometry" />
        </mxCell>
        <mxCell id="q9oViSbYk0b3c3KkVcn8-210" value="" style="edgeStyle=orthogonalEdgeStyle;rounded=0;orthogonalLoop=1;jettySize=auto;html=1;fontSize=34;fontFamily=Helvetica;" parent="Y0o45EJZCBMr-YiilYOE-206" source="pp8-QFKgKfyrIBCOwYfq-182" target="162" edge="1">
          <mxGeometry relative="1" as="geometry" />
        </mxCell>
        <mxCell id="pp8-QFKgKfyrIBCOwYfq-182" value="&lt;b style=&quot;font-size: 34px;&quot;&gt;ReadReg&lt;/b&gt;" style="rounded=1;whiteSpace=wrap;html=1;fillColor=#fff2cc;strokeColor=#000000;fontSize=34;fontFamily=Helvetica;" parent="Y0o45EJZCBMr-YiilYOE-206" vertex="1">
          <mxGeometry x="685" y="1013.2093055174306" width="120" height="112.50068624759814" as="geometry" />
        </mxCell>
        <mxCell id="OY7V5wZrcTOGdJZJS2dS-27" value="" style="triangle;whiteSpace=wrap;html=1;rotation=0;fillColor=#647687;fontColor=#ffffff;strokeColor=#000000;direction=east;fontSize=34;fontFamily=Helvetica;" parent="Y0o45EJZCBMr-YiilYOE-206" vertex="1">
          <mxGeometry x="215" y="27.77360691737579" width="20" height="55.54721383475158" as="geometry" />
        </mxCell>
        <mxCell id="OY7V5wZrcTOGdJZJS2dS-28" value="" style="triangle;whiteSpace=wrap;html=1;rotation=0;fillColor=#647687;fontColor=#ffffff;strokeColor=#000000;direction=east;fontSize=34;fontFamily=Helvetica;" parent="Y0o45EJZCBMr-YiilYOE-206" vertex="1">
          <mxGeometry x="215" y="367.73661817183637" width="20" height="55.54721383475158" as="geometry" />
        </mxCell>
        <mxCell id="OY7V5wZrcTOGdJZJS2dS-29" value="" style="triangle;whiteSpace=wrap;html=1;rotation=0;fillColor=#647687;fontColor=#ffffff;strokeColor=#000000;direction=east;fontSize=34;fontFamily=Helvetica;" parent="Y0o45EJZCBMr-YiilYOE-206" vertex="1">
          <mxGeometry x="215" y="703.8324183365357" width="20" height="55.54721383475158" as="geometry" />
        </mxCell>
        <mxCell id="OY7V5wZrcTOGdJZJS2dS-30" value="" style="triangle;whiteSpace=wrap;html=1;rotation=0;fillColor=#647687;fontColor=#ffffff;strokeColor=#000000;direction=east;fontSize=34;fontFamily=Helvetica;" parent="Y0o45EJZCBMr-YiilYOE-206" vertex="1">
          <mxGeometry x="215" y="1040.6313477902827" width="20" height="55.54721383475158" as="geometry" />
        </mxCell>
        <mxCell id="145" value="" style="group;fontSize=34;fontFamily=Helvetica;" parent="Y0o45EJZCBMr-YiilYOE-206" vertex="1" connectable="0">
          <mxGeometry y="267.1891298380456" width="130.5" height="450.00274499039256" as="geometry" />
        </mxCell>
        <mxCell id="pp8-QFKgKfyrIBCOwYfq-94" value="&lt;b style=&quot;font-size: 34px;&quot;&gt;&lt;font color=&quot;#000000&quot; style=&quot;font-size: 34px;&quot;&gt;Dispatch&lt;/font&gt;&lt;/b&gt;" style="rounded=1;whiteSpace=wrap;html=1;fillColor=#e1d5e7;strokeColor=#000000;fontSize=34;fontFamily=Helvetica;" parent="145" vertex="1">
          <mxGeometry x="10.5" width="120" height="450.00274499039256" as="geometry" />
        </mxCell>
        <mxCell id="q9oViSbYk0b3c3KkVcn8-218" value="" style="edgeStyle=orthogonalEdgeStyle;rounded=0;orthogonalLoop=1;jettySize=auto;html=1;entryX=0.121;entryY=0.989;entryDx=0;entryDy=0;entryPerimeter=0;exitX=0.443;exitY=-0.015;exitDx=0;exitDy=0;exitPerimeter=0;fontSize=34;fontFamily=Helvetica;" parent="Y0o45EJZCBMr-YiilYOE-206" source="162" target="171" edge="1">
          <mxGeometry relative="1" as="geometry">
            <mxPoint x="915" y="901.4117485588799" as="targetPoint" />
          </mxGeometry>
        </mxCell>
        <mxCell id="q9oViSbYk0b3c3KkVcn8-227" value="vaddr" style="edgeLabel;html=1;align=center;verticalAlign=middle;resizable=0;points=[];labelBackgroundColor=none;fontSize=34;fontFamily=Helvetica;" parent="q9oViSbYk0b3c3KkVcn8-218" vertex="1" connectable="0">
          <mxGeometry x="-0.0999" relative="1" as="geometry">
            <mxPoint as="offset" />
          </mxGeometry>
        </mxCell>
        <mxCell id="Y0o45EJZCBMr-YiilYOE-208" value="" style="edgeStyle=orthogonalEdgeStyle;rounded=0;orthogonalLoop=1;jettySize=auto;html=1;fontFamily=Helvetica;" parent="Y0o45EJZCBMr-YiilYOE-206" source="162" target="auRPPHbOvDZTyeZEAKgO-219" edge="1">
          <mxGeometry relative="1" as="geometry" />
        </mxCell>
        <mxCell id="162" value="&lt;font style=&quot;font-size: 34px;&quot; color=&quot;#000000&quot;&gt;&lt;span style=&quot;font-size: 34px;&quot;&gt;&lt;b style=&quot;font-size: 34px;&quot;&gt;Mem0&lt;/b&gt;&lt;/span&gt;&lt;/font&gt;" style="rounded=1;whiteSpace=wrap;html=1;fillColor=#fff2cc;strokeColor=#000000;direction=east;flipV=0;fontSize=34;fontFamily=Helvetica;" parent="Y0o45EJZCBMr-YiilYOE-206" vertex="1">
          <mxGeometry x="855" y="1012.1546115838594" width="120" height="112.50068624759814" as="geometry" />
        </mxCell>
        <mxCell id="164" style="edgeStyle=none;html=1;labelBackgroundColor=none;strokeColor=#000000;fontSize=34;fontColor=#000000;startArrow=none;exitX=0.489;exitY=0;exitDx=0;exitDy=0;exitPerimeter=0;fontFamily=Helvetica;" parent="Y0o45EJZCBMr-YiilYOE-206" source="auRPPHbOvDZTyeZEAKgO-219" target="167" edge="1">
          <mxGeometry relative="1" as="geometry">
            <mxPoint x="1095" y="1068.7565193521823" as="sourcePoint" />
            <mxPoint x="1184.9999999999998" y="1068.4049547076588" as="targetPoint" />
          </mxGeometry>
        </mxCell>
        <mxCell id="auRPPHbOvDZTyeZEAKgO-211" style="edgeStyle=orthogonalEdgeStyle;rounded=0;orthogonalLoop=1;jettySize=auto;html=1;exitX=0.927;exitY=1;exitDx=0;exitDy=0;exitPerimeter=0;entryX=0.311;entryY=-0.002;entryDx=0;entryDy=0;entryPerimeter=0;fontSize=34;fontFamily=Helvetica;" parent="Y0o45EJZCBMr-YiilYOE-206" source="171" target="167" edge="1">
          <mxGeometry relative="1" as="geometry" />
        </mxCell>
        <mxCell id="auRPPHbOvDZTyeZEAKgO-212" value="paddr" style="edgeLabel;html=1;align=center;verticalAlign=middle;resizable=0;points=[];labelBackgroundColor=none;fontSize=34;fontFamily=Helvetica;" parent="auRPPHbOvDZTyeZEAKgO-211" vertex="1" connectable="0">
          <mxGeometry x="-0.0919" relative="1" as="geometry">
            <mxPoint x="-52" as="offset" />
          </mxGeometry>
        </mxCell>
        <mxCell id="171" value="&lt;font color=&quot;#000000&quot; style=&quot;font-size: 34px;&quot;&gt;&lt;span style=&quot;font-size: 34px;&quot;&gt;&lt;b style=&quot;font-size: 34px;&quot;&gt;DTLB&lt;/b&gt;&lt;/span&gt;&lt;/font&gt;" style="rounded=1;whiteSpace=wrap;html=1;fillColor=#ceea8d;strokeColor=#000000;direction=east;flipV=0;fontSize=34;fontFamily=Helvetica;" parent="Y0o45EJZCBMr-YiilYOE-206" vertex="1">
          <mxGeometry x="870" y="857.8177326379357" width="315" height="85.07864397474609" as="geometry" />
        </mxCell>
        <mxCell id="pp8-QFKgKfyrIBCOwYfq-259" value="&lt;b style=&quot;font-size: 34px;&quot;&gt;&lt;font color=&quot;#000000&quot; style=&quot;font-size: 34px;&quot;&gt;Store Buffer&lt;/font&gt;&lt;/b&gt;" style="rounded=1;whiteSpace=wrap;html=1;fillColor=#d0cee2;strokeColor=#000000;fontSize=34;fontFamily=Helvetica;" parent="Y0o45EJZCBMr-YiilYOE-206" vertex="1">
          <mxGeometry x="1125" y="1224.499656876201" width="450" height="56.25034312379907" as="geometry" />
        </mxCell>
        <mxCell id="206" style="edgeStyle=none;html=1;strokeColor=#000000;rounded=0;exitX=0.001;exitY=0.502;exitDx=0;exitDy=0;exitPerimeter=0;entryX=0.817;entryY=0.999;entryDx=0;entryDy=0;entryPerimeter=0;fontSize=34;fontFamily=Helvetica;" parent="Y0o45EJZCBMr-YiilYOE-206" source="pp8-QFKgKfyrIBCOwYfq-259" target="auRPPHbOvDZTyeZEAKgO-219" edge="1">
          <mxGeometry relative="1" as="geometry">
            <Array as="points">
              <mxPoint x="995" y="1252.9763930826243" />
              <mxPoint x="995" y="1119.3818281636013" />
            </Array>
            <mxPoint x="1055" y="1139.069448256931" as="targetPoint" />
            <mxPoint x="1185" y="1210.4370710952512" as="sourcePoint" />
          </mxGeometry>
        </mxCell>
        <mxCell id="q9oViSbYk0b3c3KkVcn8-217" value="pop" style="edgeLabel;html=1;align=center;verticalAlign=middle;resizable=0;points=[];labelBackgroundColor=none;fontSize=34;fontFamily=Helvetica;" parent="206" vertex="1" connectable="0">
          <mxGeometry x="-0.1425" relative="1" as="geometry">
            <mxPoint x="16" y="9" as="offset" />
          </mxGeometry>
        </mxCell>
        <mxCell id="167" value="&lt;b style=&quot;font-size: 34px;&quot;&gt;&lt;font color=&quot;#000000&quot; style=&quot;font-size: 34px;&quot;&gt;Mem1&lt;/font&gt;&lt;/b&gt;" style="rounded=1;whiteSpace=wrap;html=1;fillColor=#fff2cc;strokeColor=#000000;direction=east;flipV=0;fontSize=34;fontFamily=Helvetica;" parent="Y0o45EJZCBMr-YiilYOE-206" vertex="1">
          <mxGeometry x="1125" y="1012.1546115838594" width="120" height="112.50068624759814" as="geometry" />
        </mxCell>
        <mxCell id="auRPPHbOvDZTyeZEAKgO-231" value="" style="edgeStyle=orthogonalEdgeStyle;rounded=0;orthogonalLoop=1;jettySize=auto;html=1;fontSize=34;fontFamily=Helvetica;" parent="Y0o45EJZCBMr-YiilYOE-206" source="186" target="auRPPHbOvDZTyeZEAKgO-230" edge="1">
          <mxGeometry relative="1" as="geometry" />
        </mxCell>
        <mxCell id="186" value="&lt;font style=&quot;font-size: 34px;&quot; color=&quot;#000000&quot;&gt;&lt;span style=&quot;font-size: 34px;&quot;&gt;&lt;b style=&quot;font-size: 34px;&quot;&gt;Mem2&lt;/b&gt;&lt;/span&gt;&lt;/font&gt;" style="rounded=1;whiteSpace=wrap;html=1;fillColor=#fff2cc;strokeColor=#000000;direction=east;flipV=0;fontSize=34;fontFamily=Helvetica;" parent="Y0o45EJZCBMr-YiilYOE-206" vertex="1">
          <mxGeometry x="1405" y="1012.1546115838594" width="120" height="112.50068624759814" as="geometry" />
        </mxCell>
        <mxCell id="190" style="edgeStyle=none;rounded=0;html=1;strokeColor=#000000;fontColor=#f63532;exitX=0.984;exitY=0.511;exitDx=0;exitDy=0;exitPerimeter=0;fontSize=34;fontFamily=Helvetica;" parent="Y0o45EJZCBMr-YiilYOE-206" source="167" edge="1">
          <mxGeometry relative="1" as="geometry">
            <mxPoint x="1304.9999999999998" y="1069.4596486412297" as="sourcePoint" />
            <mxPoint x="1405" y="1070" as="targetPoint" />
          </mxGeometry>
        </mxCell>
        <mxCell id="189" value="" style="shape=waypoint;sketch=0;fillStyle=solid;size=6;pointerEvents=1;points=[];fillColor=none;resizable=0;rotatable=0;perimeter=centerPerimeter;snapToPoint=1;labelBackgroundColor=none;strokeColor=#000000;fontColor=#f63532;fontSize=34;fontFamily=Helvetica;" parent="Y0o45EJZCBMr-YiilYOE-206" vertex="1">
          <mxGeometry x="1395" y="1054.6939335712325" width="20" height="20" as="geometry" />
        </mxCell>
        <mxCell id="q9oViSbYk0b3c3KkVcn8-211" value="" style="edgeStyle=orthogonalEdgeStyle;rounded=0;orthogonalLoop=1;jettySize=auto;html=1;entryX=0.801;entryY=0.053;entryDx=0;entryDy=0;entryPerimeter=0;fontSize=34;fontFamily=Helvetica;" parent="Y0o45EJZCBMr-YiilYOE-206" target="pp8-QFKgKfyrIBCOwYfq-259" edge="1">
          <mxGeometry relative="1" as="geometry">
            <mxPoint x="1485" y="1125.358427120505" as="sourcePoint" />
          </mxGeometry>
        </mxCell>
        <mxCell id="q9oViSbYk0b3c3KkVcn8-240" value="push" style="edgeLabel;html=1;align=center;verticalAlign=middle;resizable=0;points=[];labelBackgroundColor=none;fontSize=34;fontFamily=Helvetica;" parent="q9oViSbYk0b3c3KkVcn8-211" vertex="1" connectable="0">
          <mxGeometry x="0.0775" y="1" relative="1" as="geometry">
            <mxPoint x="-11" as="offset" />
          </mxGeometry>
        </mxCell>
        <mxCell id="201" style="edgeStyle=none;rounded=0;html=1;entryX=0.522;entryY=0.446;entryDx=0;entryDy=0;entryPerimeter=0;strokeColor=#000000;fontColor=#FF3333;exitX=0.817;exitY=1.001;exitDx=0;exitDy=0;exitPerimeter=0;fontSize=34;fontFamily=Helvetica;" parent="Y0o45EJZCBMr-YiilYOE-206" source="180" edge="1">
          <mxGeometry relative="1" as="geometry">
            <mxPoint x="1454.62962962963" y="915.4743343398297" as="sourcePoint" />
            <mxPoint x="1465" y="1012.5061762283831" as="targetPoint" />
          </mxGeometry>
        </mxCell>
        <mxCell id="auRPPHbOvDZTyeZEAKgO-223" value="hit data" style="edgeLabel;html=1;align=center;verticalAlign=middle;resizable=0;points=[];labelBackgroundColor=none;fontSize=34;fontFamily=Helvetica;" parent="201" vertex="1" connectable="0">
          <mxGeometry x="-0.0479" relative="1" as="geometry">
            <mxPoint x="15" as="offset" />
          </mxGeometry>
        </mxCell>
        <mxCell id="202" value="" style="group;fontSize=34;fontFamily=Helvetica;" parent="Y0o45EJZCBMr-YiilYOE-206" vertex="1" connectable="0">
          <mxGeometry x="1195" y="843.4035822124622" width="330" height="113.9069448256931" as="geometry" />
        </mxCell>
        <mxCell id="180" value="&lt;b style=&quot;font-size: 34px;&quot;&gt;&lt;font color=&quot;#000000&quot; style=&quot;font-size: 34px;&quot;&gt;DCache Data&lt;/font&gt;&lt;/b&gt;" style="rounded=1;whiteSpace=wrap;html=1;fillColor=#fad9d5;strokeColor=#000000;direction=east;flipV=0;fontSize=34;fontFamily=Helvetica;" parent="202" vertex="1">
          <mxGeometry y="16.17197364809223" width="330" height="85.78177326379357" as="geometry" />
        </mxCell>
        <mxCell id="q9oViSbYk0b3c3KkVcn8-225" value="" style="edgeStyle=orthogonalEdgeStyle;rounded=0;orthogonalLoop=1;jettySize=auto;html=1;fontSize=34;fontFamily=Helvetica;" parent="Y0o45EJZCBMr-YiilYOE-206" source="q9oViSbYk0b3c3KkVcn8-224" target="pp8-QFKgKfyrIBCOwYfq-182" edge="1">
          <mxGeometry relative="1" as="geometry" />
        </mxCell>
        <mxCell id="q9oViSbYk0b3c3KkVcn8-224" value="O&lt;span style=&quot;background-color: initial; font-size: 34px;&quot;&gt;rdered&lt;/span&gt;&lt;div style=&quot;font-size: 34px;&quot;&gt;&lt;span style=&quot;background-color: initial; font-size: 34px;&quot;&gt;Issue&lt;/span&gt;&lt;/div&gt;" style="rounded=1;whiteSpace=wrap;html=1;fontStyle=1;fillColor=#ffe6cc;strokeColor=#000000;fontSize=34;fontFamily=Helvetica;" parent="Y0o45EJZCBMr-YiilYOE-206" vertex="1">
          <mxGeometry x="505" y="1014.6155640955257" width="120" height="111.09442766950316" as="geometry" />
        </mxCell>
        <mxCell id="auRPPHbOvDZTyeZEAKgO-235" value="" style="edgeStyle=orthogonalEdgeStyle;rounded=0;orthogonalLoop=1;jettySize=auto;html=1;fontSize=34;fontFamily=Helvetica;" parent="Y0o45EJZCBMr-YiilYOE-206" source="q9oViSbYk0b3c3KkVcn8-228" target="auRPPHbOvDZTyeZEAKgO-234" edge="1">
          <mxGeometry relative="1" as="geometry" />
        </mxCell>
        <mxCell id="q9oViSbYk0b3c3KkVcn8-228" value="&lt;b style=&quot;font-size: 34px;&quot;&gt;ReadReg&lt;/b&gt;" style="rounded=1;whiteSpace=wrap;html=1;fillColor=#fff2cc;strokeColor=#000000;fontSize=34;fontFamily=Helvetica;" parent="Y0o45EJZCBMr-YiilYOE-206" vertex="1">
          <mxGeometry x="680" y="337.50205874279436" width="120" height="112.50068624759814" as="geometry" />
        </mxCell>
        <mxCell id="auRPPHbOvDZTyeZEAKgO-245" value="" style="edgeStyle=orthogonalEdgeStyle;rounded=0;orthogonalLoop=1;jettySize=auto;html=1;fontSize=34;fontFamily=Helvetica;" parent="Y0o45EJZCBMr-YiilYOE-206" source="q9oViSbYk0b3c3KkVcn8-230" target="auRPPHbOvDZTyeZEAKgO-244" edge="1">
          <mxGeometry relative="1" as="geometry" />
        </mxCell>
        <mxCell id="q9oViSbYk0b3c3KkVcn8-230" value="&lt;b style=&quot;font-size: 34px;&quot;&gt;ReadReg&lt;/b&gt;" style="rounded=1;whiteSpace=wrap;html=1;fillColor=#fff2cc;strokeColor=#000000;fontSize=34;fontFamily=Helvetica;" parent="Y0o45EJZCBMr-YiilYOE-206" vertex="1">
          <mxGeometry x="680" width="120" height="112.50068624759814" as="geometry" />
        </mxCell>
        <mxCell id="q9oViSbYk0b3c3KkVcn8-249" value="" style="edgeStyle=orthogonalEdgeStyle;rounded=0;orthogonalLoop=1;jettySize=auto;html=1;fontSize=34;fontFamily=Helvetica;" parent="Y0o45EJZCBMr-YiilYOE-206" source="q9oViSbYk0b3c3KkVcn8-232" target="q9oViSbYk0b3c3KkVcn8-248" edge="1">
          <mxGeometry relative="1" as="geometry" />
        </mxCell>
        <mxCell id="q9oViSbYk0b3c3KkVcn8-232" value="&lt;b style=&quot;font-size: 34px;&quot;&gt;ReadReg&lt;/b&gt;" style="rounded=1;whiteSpace=wrap;html=1;fillColor=#fff2cc;strokeColor=#000000;fontSize=34;fontFamily=Helvetica;" parent="Y0o45EJZCBMr-YiilYOE-206" vertex="1">
          <mxGeometry x="685" y="675.0041174855887" width="120" height="112.50068624759814" as="geometry" />
        </mxCell>
        <mxCell id="q9oViSbYk0b3c3KkVcn8-233" value="" style="edgeStyle=orthogonalEdgeStyle;rounded=0;orthogonalLoop=1;jettySize=auto;html=1;fontSize=34;fontFamily=Helvetica;" parent="Y0o45EJZCBMr-YiilYOE-206" source="q9oViSbYk0b3c3KkVcn8-234" target="q9oViSbYk0b3c3KkVcn8-232" edge="1">
          <mxGeometry relative="1" as="geometry" />
        </mxCell>
        <mxCell id="q9oViSbYk0b3c3KkVcn8-234" value="O&lt;span style=&quot;background-color: initial; font-size: 34px;&quot;&gt;rdered&lt;/span&gt;&lt;div style=&quot;font-size: 34px;&quot;&gt;&lt;span style=&quot;background-color: initial; font-size: 34px;&quot;&gt;Issue&lt;/span&gt;&lt;/div&gt;" style="rounded=1;whiteSpace=wrap;html=1;fontStyle=1;fillColor=#ffe6cc;strokeColor=#000000;fontSize=34;fontFamily=Helvetica;" parent="Y0o45EJZCBMr-YiilYOE-206" vertex="1">
          <mxGeometry x="505" y="676.4103760636838" width="120" height="111.09442766950316" as="geometry" />
        </mxCell>
        <mxCell id="A1JoY7GcFFuIIpcnc2Ma-44" value="&lt;b style=&quot;font-size: 30px;&quot;&gt;&lt;font style=&quot;font-size: 30px;&quot; color=&quot;#000000&quot;&gt;Priv Buffer&lt;/font&gt;&lt;/b&gt;" style="rounded=1;whiteSpace=wrap;html=1;fillColor=#f8cecc;strokeColor=#000000;fontSize=30;fontFamily=Helvetica;" parent="Y0o45EJZCBMr-YiilYOE-206" vertex="1">
          <mxGeometry x="879.85" y="562.5034312379906" width="109.7" height="66.33321712874005" as="geometry" />
        </mxCell>
        <mxCell id="q9oViSbYk0b3c3KkVcn8-251" value="" style="edgeStyle=orthogonalEdgeStyle;rounded=0;orthogonalLoop=1;jettySize=auto;html=1;fontSize=34;fontFamily=Helvetica;" parent="Y0o45EJZCBMr-YiilYOE-206" source="q9oViSbYk0b3c3KkVcn8-248" target="A1JoY7GcFFuIIpcnc2Ma-44" edge="1">
          <mxGeometry relative="1" as="geometry" />
        </mxCell>
        <mxCell id="auRPPHbOvDZTyeZEAKgO-225" value="" style="edgeStyle=orthogonalEdgeStyle;rounded=0;orthogonalLoop=1;jettySize=auto;html=1;fontSize=34;fontFamily=Helvetica;" parent="Y0o45EJZCBMr-YiilYOE-206" source="q9oViSbYk0b3c3KkVcn8-248" target="q9oViSbYk0b3c3KkVcn8-250" edge="1">
          <mxGeometry relative="1" as="geometry" />
        </mxCell>
        <mxCell id="q9oViSbYk0b3c3KkVcn8-248" value="&lt;font style=&quot;font-size: 34px;&quot; color=&quot;#000000&quot;&gt;&lt;span style=&quot;font-size: 34px;&quot;&gt;&lt;b style=&quot;font-size: 34px;&quot;&gt;Muldiv0&lt;/b&gt;&lt;/span&gt;&lt;/font&gt;" style="rounded=1;whiteSpace=wrap;html=1;fillColor=#fff2cc;strokeColor=#000000;direction=east;flipV=0;fontSize=34;fontFamily=Helvetica;" parent="Y0o45EJZCBMr-YiilYOE-206" vertex="1">
          <mxGeometry x="874.7" y="675.0041174855887" width="120" height="112.50068624759814" as="geometry" />
        </mxCell>
        <mxCell id="auRPPHbOvDZTyeZEAKgO-227" value="" style="edgeStyle=orthogonalEdgeStyle;rounded=0;orthogonalLoop=1;jettySize=auto;html=1;fontSize=34;fontFamily=Helvetica;" parent="Y0o45EJZCBMr-YiilYOE-206" source="q9oViSbYk0b3c3KkVcn8-250" target="auRPPHbOvDZTyeZEAKgO-226" edge="1">
          <mxGeometry relative="1" as="geometry" />
        </mxCell>
        <mxCell id="q9oViSbYk0b3c3KkVcn8-250" value="&lt;font style=&quot;font-size: 34px;&quot; color=&quot;#000000&quot;&gt;&lt;span style=&quot;font-size: 34px;&quot;&gt;&lt;b style=&quot;font-size: 34px;&quot;&gt;Muldiv1&lt;/b&gt;&lt;/span&gt;&lt;/font&gt;" style="rounded=1;whiteSpace=wrap;html=1;fillColor=#fff2cc;strokeColor=#000000;direction=east;flipV=0;fontSize=34;fontFamily=Helvetica;" parent="Y0o45EJZCBMr-YiilYOE-206" vertex="1">
          <mxGeometry x="1065" y="675.7072467746362" width="120" height="112.50068624759814" as="geometry" />
        </mxCell>
        <mxCell id="auRPPHbOvDZTyeZEAKgO-219" value="" style="shape=trapezoid;perimeter=trapezoidPerimeter;whiteSpace=wrap;html=1;fixedSize=1;rotation=90;size=28.750000000000227;fillColor=#fad7ac;strokeColor=#b46504;fontSize=34;fontFamily=Helvetica;" parent="Y0o45EJZCBMr-YiilYOE-206" vertex="1">
          <mxGeometry x="987.4300000000001" y="1051.69860279989" width="110" height="36.91428767499314" as="geometry" />
        </mxCell>
        <mxCell id="auRPPHbOvDZTyeZEAKgO-220" style="edgeStyle=orthogonalEdgeStyle;rounded=0;orthogonalLoop=1;jettySize=auto;html=1;entryX=0.085;entryY=1.004;entryDx=0;entryDy=0;entryPerimeter=0;exitX=0.815;exitY=-0.016;exitDx=0;exitDy=0;exitPerimeter=0;fontSize=34;fontFamily=Helvetica;" parent="Y0o45EJZCBMr-YiilYOE-206" source="167" target="180" edge="1">
          <mxGeometry relative="1" as="geometry" />
        </mxCell>
        <mxCell id="auRPPHbOvDZTyeZEAKgO-221" value="vaddr" style="edgeLabel;html=1;align=center;verticalAlign=middle;resizable=0;points=[];labelBackgroundColor=none;fontSize=34;fontFamily=Helvetica;" parent="auRPPHbOvDZTyeZEAKgO-220" vertex="1" connectable="0">
          <mxGeometry x="0.0404" relative="1" as="geometry">
            <mxPoint x="47" as="offset" />
          </mxGeometry>
        </mxCell>
        <mxCell id="auRPPHbOvDZTyeZEAKgO-229" style="edgeStyle=orthogonalEdgeStyle;rounded=0;orthogonalLoop=1;jettySize=auto;html=1;fontSize=34;fontFamily=Helvetica;" parent="Y0o45EJZCBMr-YiilYOE-206" source="auRPPHbOvDZTyeZEAKgO-226" target="auRPPHbOvDZTyeZEAKgO-228" edge="1">
          <mxGeometry relative="1" as="geometry" />
        </mxCell>
        <mxCell id="auRPPHbOvDZTyeZEAKgO-226" value="&lt;font style=&quot;font-size: 34px;&quot; color=&quot;#000000&quot;&gt;&lt;span style=&quot;font-size: 34px;&quot;&gt;&lt;b style=&quot;font-size: 34px;&quot;&gt;Muldiv2&lt;/b&gt;&lt;/span&gt;&lt;/font&gt;" style="rounded=1;whiteSpace=wrap;html=1;fillColor=#fff2cc;strokeColor=#000000;direction=east;flipV=0;fontSize=34;fontFamily=Helvetica;" parent="Y0o45EJZCBMr-YiilYOE-206" vertex="1">
          <mxGeometry x="1255" y="675.7072467746362" width="120" height="112.50068624759814" as="geometry" />
        </mxCell>
        <mxCell id="3Rt0gSu9O48bd2KKbhH3-209" style="edgeStyle=orthogonalEdgeStyle;rounded=0;orthogonalLoop=1;jettySize=auto;html=1;strokeColor=#0000CC;fontSize=34;fontFamily=Helvetica;" parent="Y0o45EJZCBMr-YiilYOE-206" source="auRPPHbOvDZTyeZEAKgO-228" target="auRPPHbOvDZTyeZEAKgO-253" edge="1">
          <mxGeometry relative="1" as="geometry">
            <Array as="points">
              <mxPoint x="1634" y="534.3782596760911" />
              <mxPoint x="1500" y="534.3782596760911" />
              <mxPoint x="1500" y="219.37633818281634" />
            </Array>
          </mxGeometry>
        </mxCell>
        <mxCell id="auRPPHbOvDZTyeZEAKgO-228" value="Write Back" style="rounded=1;whiteSpace=wrap;html=1;fontStyle=1;fontSize=34;fillColor=#dae8fc;strokeColor=#6c8ebf;fontFamily=Helvetica;" parent="Y0o45EJZCBMr-YiilYOE-206" vertex="1">
          <mxGeometry x="1575" y="677.1135053527313" width="118.5" height="111.09442766950316" as="geometry" />
        </mxCell>
        <mxCell id="3Rt0gSu9O48bd2KKbhH3-210" style="edgeStyle=orthogonalEdgeStyle;rounded=0;orthogonalLoop=1;jettySize=auto;html=1;strokeColor=#0000CC;fontSize=34;fontFamily=Helvetica;" parent="Y0o45EJZCBMr-YiilYOE-206" source="auRPPHbOvDZTyeZEAKgO-230" target="auRPPHbOvDZTyeZEAKgO-253" edge="1">
          <mxGeometry relative="1" as="geometry">
            <Array as="points">
              <mxPoint x="1634" y="829.6925610760361" />
              <mxPoint x="1500" y="829.6925610760361" />
              <mxPoint x="1500" y="219.37633818281634" />
            </Array>
          </mxGeometry>
        </mxCell>
        <mxCell id="auRPPHbOvDZTyeZEAKgO-230" value="Write Back" style="rounded=1;whiteSpace=wrap;html=1;fontStyle=1;fontSize=34;fillColor=#dae8fc;strokeColor=#6c8ebf;fontFamily=Helvetica;" parent="Y0o45EJZCBMr-YiilYOE-206" vertex="1">
          <mxGeometry x="1575" y="1012.1546115838594" width="118.5" height="111.09442766950316" as="geometry" />
        </mxCell>
        <mxCell id="auRPPHbOvDZTyeZEAKgO-247" style="edgeStyle=orthogonalEdgeStyle;rounded=0;orthogonalLoop=1;jettySize=auto;html=1;fontSize=34;fontFamily=Helvetica;" parent="Y0o45EJZCBMr-YiilYOE-206" source="auRPPHbOvDZTyeZEAKgO-234" target="auRPPHbOvDZTyeZEAKgO-246" edge="1">
          <mxGeometry relative="1" as="geometry" />
        </mxCell>
        <mxCell id="auRPPHbOvDZTyeZEAKgO-255" style="edgeStyle=orthogonalEdgeStyle;rounded=0;orthogonalLoop=1;jettySize=auto;html=1;strokeColor=#0000CC;fontSize=34;fontFamily=Helvetica;" parent="Y0o45EJZCBMr-YiilYOE-206" source="auRPPHbOvDZTyeZEAKgO-234" target="auRPPHbOvDZTyeZEAKgO-253" edge="1">
          <mxGeometry relative="1" as="geometry">
            <Array as="points">
              <mxPoint x="935" y="253.12654405709577" />
            </Array>
          </mxGeometry>
        </mxCell>
        <mxCell id="auRPPHbOvDZTyeZEAKgO-234" value="&lt;b style=&quot;font-size: 34px;&quot;&gt;Arith &amp;amp; Bru&lt;/b&gt;" style="rounded=1;whiteSpace=wrap;html=1;fillColor=#fff2cc;strokeColor=#000000;fontSize=34;fontFamily=Helvetica;" parent="Y0o45EJZCBMr-YiilYOE-206" vertex="1">
          <mxGeometry x="874.7" y="337.50205874279436" width="120" height="112.50068624759814" as="geometry" />
        </mxCell>
        <mxCell id="auRPPHbOvDZTyeZEAKgO-249" style="edgeStyle=orthogonalEdgeStyle;rounded=0;orthogonalLoop=1;jettySize=auto;html=1;fontSize=34;fontFamily=Helvetica;" parent="Y0o45EJZCBMr-YiilYOE-206" source="auRPPHbOvDZTyeZEAKgO-244" target="auRPPHbOvDZTyeZEAKgO-248" edge="1">
          <mxGeometry relative="1" as="geometry" />
        </mxCell>
        <mxCell id="auRPPHbOvDZTyeZEAKgO-254" style="edgeStyle=orthogonalEdgeStyle;rounded=0;orthogonalLoop=1;jettySize=auto;html=1;strokeColor=#0000CC;fontSize=34;fontFamily=Helvetica;" parent="Y0o45EJZCBMr-YiilYOE-206" source="auRPPHbOvDZTyeZEAKgO-244" target="auRPPHbOvDZTyeZEAKgO-253" edge="1">
          <mxGeometry relative="1" as="geometry">
            <Array as="points">
              <mxPoint x="935" y="168.75102937139718" />
            </Array>
          </mxGeometry>
        </mxCell>
        <mxCell id="auRPPHbOvDZTyeZEAKgO-244" value="&lt;b style=&quot;font-size: 34px;&quot;&gt;Arith &amp;amp; Bru&lt;/b&gt;" style="rounded=1;whiteSpace=wrap;html=1;fillColor=#fff2cc;strokeColor=#000000;fontSize=34;fontFamily=Helvetica;" parent="Y0o45EJZCBMr-YiilYOE-206" vertex="1">
          <mxGeometry x="874.7" y="0.7031292890474883" width="120" height="112.50068624759814" as="geometry" />
        </mxCell>
        <mxCell id="3Rt0gSu9O48bd2KKbhH3-208" style="edgeStyle=orthogonalEdgeStyle;rounded=0;orthogonalLoop=1;jettySize=auto;html=1;strokeColor=#0000CC;fontSize=34;fontFamily=Helvetica;" parent="Y0o45EJZCBMr-YiilYOE-206" source="auRPPHbOvDZTyeZEAKgO-246" target="auRPPHbOvDZTyeZEAKgO-253" edge="1">
          <mxGeometry relative="1" as="geometry">
            <Array as="points">
              <mxPoint x="1634" y="219.37633818281634" />
            </Array>
          </mxGeometry>
        </mxCell>
        <mxCell id="auRPPHbOvDZTyeZEAKgO-246" value="Write Back" style="rounded=1;whiteSpace=wrap;html=1;fontStyle=1;fontSize=34;fillColor=#dae8fc;strokeColor=#6c8ebf;fontFamily=Helvetica;" parent="Y0o45EJZCBMr-YiilYOE-206" vertex="1">
          <mxGeometry x="1575" y="336.7989294537469" width="118.5" height="111.09442766950316" as="geometry" />
        </mxCell>
        <mxCell id="3Rt0gSu9O48bd2KKbhH3-207" style="edgeStyle=orthogonalEdgeStyle;rounded=0;orthogonalLoop=1;jettySize=auto;html=1;strokeColor=#0000CC;fontSize=34;fontFamily=Helvetica;" parent="Y0o45EJZCBMr-YiilYOE-206" source="auRPPHbOvDZTyeZEAKgO-248" target="auRPPHbOvDZTyeZEAKgO-253" edge="1">
          <mxGeometry relative="1" as="geometry">
            <Array as="points">
              <mxPoint x="1634" y="219.37633818281634" />
            </Array>
          </mxGeometry>
        </mxCell>
        <mxCell id="auRPPHbOvDZTyeZEAKgO-248" value="Write Back" style="rounded=1;whiteSpace=wrap;html=1;fontStyle=1;fontSize=34;fillColor=#dae8fc;strokeColor=#6c8ebf;fontFamily=Helvetica;" parent="Y0o45EJZCBMr-YiilYOE-206" vertex="1">
          <mxGeometry x="1575" y="2.109387867142465" width="118.5" height="111.09442766950316" as="geometry" />
        </mxCell>
        <mxCell id="auRPPHbOvDZTyeZEAKgO-257" style="edgeStyle=orthogonalEdgeStyle;rounded=0;orthogonalLoop=1;jettySize=auto;html=1;strokeColor=#FF1D0D;fontSize=34;fontFamily=Helvetica;" parent="Y0o45EJZCBMr-YiilYOE-206" source="auRPPHbOvDZTyeZEAKgO-253" target="q9oViSbYk0b3c3KkVcn8-228" edge="1">
          <mxGeometry relative="1" as="geometry" />
        </mxCell>
        <mxCell id="auRPPHbOvDZTyeZEAKgO-258" style="edgeStyle=orthogonalEdgeStyle;rounded=0;orthogonalLoop=1;jettySize=auto;html=1;strokeColor=#FF1D0D;fontSize=34;fontFamily=Helvetica;" parent="Y0o45EJZCBMr-YiilYOE-206" source="auRPPHbOvDZTyeZEAKgO-253" target="q9oViSbYk0b3c3KkVcn8-232" edge="1">
          <mxGeometry relative="1" as="geometry">
            <Array as="points">
              <mxPoint x="1220" y="520.3156738951413" />
              <mxPoint x="745" y="520.3156738951413" />
            </Array>
          </mxGeometry>
        </mxCell>
        <mxCell id="auRPPHbOvDZTyeZEAKgO-259" style="edgeStyle=orthogonalEdgeStyle;rounded=0;orthogonalLoop=1;jettySize=auto;html=1;strokeColor=#FF1D0D;fontSize=34;fontFamily=Helvetica;" parent="Y0o45EJZCBMr-YiilYOE-206" source="auRPPHbOvDZTyeZEAKgO-253" target="pp8-QFKgKfyrIBCOwYfq-182" edge="1">
          <mxGeometry relative="1" as="geometry">
            <Array as="points">
              <mxPoint x="1220" y="829.6925610760361" />
              <mxPoint x="745" y="829.6925610760361" />
            </Array>
          </mxGeometry>
        </mxCell>
        <mxCell id="auRPPHbOvDZTyeZEAKgO-253" value="&lt;font style=&quot;font-size: 34px;&quot;&gt;&lt;b style=&quot;font-size: 34px;&quot;&gt;Forwarder&lt;/b&gt;&lt;/font&gt;" style="rounded=1;whiteSpace=wrap;html=1;fillColor=#b1ddf0;strokeColor=#10739e;fontSize=34;fontFamily=Helvetica;" parent="Y0o45EJZCBMr-YiilYOE-206" vertex="1">
          <mxGeometry x="1190" y="113.2038155366456" width="130" height="210.9387867142465" as="geometry" />
        </mxCell>
        <mxCell id="auRPPHbOvDZTyeZEAKgO-256" style="edgeStyle=orthogonalEdgeStyle;rounded=0;orthogonalLoop=1;jettySize=auto;html=1;strokeColor=#FF1D0D;fontSize=34;fontFamily=Helvetica;" parent="Y0o45EJZCBMr-YiilYOE-206" source="auRPPHbOvDZTyeZEAKgO-253" target="q9oViSbYk0b3c3KkVcn8-230" edge="1">
          <mxGeometry relative="1" as="geometry" />
        </mxCell>
      </root>
    </mxGraphModel>
  </diagram>
</mxfile>
